<svg id="Component_17_1" data-name="Component 17 – 1" xmlns="http://www.w3.org/2000/svg" width="895.681" height="531.951" viewBox="0 0 895.681 531.951">
  <circle id="Ellipse_182" data-name="Ellipse 182" cx="4.354" cy="4.354" r="4.354" transform="translate(88.754 51.61)" fill="#fff"/>
  <circle id="Ellipse_183" data-name="Ellipse 183" cx="4.354" cy="4.354" r="4.354" transform="translate(105.279 51.61)" fill="#fff"/>
  <circle id="Ellipse_184" data-name="Ellipse 184" cx="4.354" cy="4.354" r="4.354" transform="translate(121.804 51.61)" fill="#fff"/>
  <rect id="Rectangle_266" data-name="Rectangle 266" width="552.899" height="3.073" transform="translate(82.529 66.193)" fill="#fff"/>
  <rect id="Rectangle_246" data-name="Rectangle 246" width="635.631" height="407.086" transform="translate(0.271 0.36)" fill="#e6e6e6"/>
  <rect id="Rectangle_264" data-name="Rectangle 264" width="635.631" height="27.004" fill="#28b485"/>
  <rect id="Rectangle_247" data-name="Rectangle 247" width="599.28" height="155.185" transform="translate(18.972 48.785)" fill="#fff"/>
  <rect id="Rectangle_259" data-name="Rectangle 259" width="599.28" height="155.185" transform="translate(19.351 206.456)" fill="#fff"/>
  <g id="Group_31" data-name="Group 31" transform="translate(251.742 83.115)">
    <rect id="Rectangle_250" data-name="Rectangle 250" width="324.331" height="14.455" fill="#e6e6e6"/>
    <rect id="Rectangle_251" data-name="Rectangle 251" width="115.639" height="14.455" transform="translate(0 36.137)" fill="#e6e6e6"/>
    <rect id="Rectangle_252" data-name="Rectangle 252" width="230.375" height="14.455" transform="translate(0 72.274)" fill="#e6e6e6"/>
  </g>
  <path id="Path_952" data-name="Path 952" d="M383.606,469.293a53.91,53.91,0,0,1-8.813,29.627,52.683,52.683,0,0,1-3.965,5.325,54.429,54.429,0,0,1-11.617,10.322q-1.773,1.175-3.645,2.2a53.736,53.736,0,0,1-21.057,6.485c-1.68.164-3.388.242-5.111.242a53.984,53.984,0,0,1-13.988-1.829,51.937,51.937,0,0,1-7.567-2.627q-1.879-.812-3.673-1.765a53.391,53.391,0,0,1-8.165-5.289q-1.783-1.388-3.438-2.926a54.2,54.2,0,1,1,91.039-39.764Z" transform="translate(-186.659 -185.765)" fill="#28b485"/>
  <g id="Group_32" data-name="Group 32" transform="translate(117.446 258.418)">
    <rect id="Rectangle_273" data-name="Rectangle 273" width="6.645" height="50.592" transform="translate(21.974)" fill="#fff"/>
    <rect id="Rectangle_274" data-name="Rectangle 274" width="50.592" height="6.645" transform="translate(0 21.974)" fill="#fff"/>
  </g>
  <g id="Group_33" data-name="Group 33" transform="translate(242.494 241.061)">
    <rect id="Rectangle_250-2" data-name="Rectangle 250-2" width="324.331" height="14.455" fill="#e6e6e6"/>
    <rect id="Rectangle_251-2" data-name="Rectangle 251-2" width="115.639" height="14.455" transform="translate(0 36.137)" fill="#e6e6e6"/>
    <rect id="Rectangle_252-2" data-name="Rectangle 252-2" width="230.375" height="14.455" transform="translate(0 72.274)" fill="#e6e6e6"/>
  </g>
  <circle id="Ellipse_194" data-name="Ellipse 194" cx="4.467" cy="4.467" r="4.467" transform="translate(37.572 8.966)" fill="#fff"/>
  <circle id="Ellipse_195" data-name="Ellipse 195" cx="4.467" cy="4.467" r="4.467" transform="translate(54.528 8.966)" fill="#fff"/>
  <circle id="Ellipse_246" data-name="Ellipse 246" cx="4.467" cy="4.467" r="4.467" transform="translate(20.572 8.966)" fill="#fff"/>
  <path id="Path_3" data-name="Path 3" d="M361.9,333a92.633,92.633,0,0,0-14.78-6.22l-.65-7.19-26.36-2.84-3.35,9.19-9.46,3.55a4.606,4.606,0,0,0-.96.5h-.01a4.687,4.687,0,0,0-2,3.12,4.792,4.792,0,0,0,.07,1.88l.5,2.05c.72.43,1.46.84,2.2,1.23l.47.24c1.08.56,2.18,1.09,3.31,1.58.23.1.48.2.71.3.02.01.03.01.05.02.53.22,1.06.43,1.6.63a52.56,52.56,0,0,0,5.42,1.74,55.737,55.737,0,0,0,14.37,1.88c1.77,0,3.52-.08,5.25-.25a55.512,55.512,0,0,0,11.64-2.35c.01,0,.02-.01.03-.01a54.632,54.632,0,0,0,6.99-2.77c.01-.01.03-.01.04-.02.51-.24,1-.5,1.5-.75l.24-.12c.4-.21.8-.42,1.2-.64,1-.55,1.98-1.13,2.95-1.75.27-.16.53-.33.8-.51.38-.25.76-.51,1.13-.78C363.867,334.106,362.9,333.536,361.9,333Z" transform="translate(-186.659 -174.848)" fill="#3f3d56"/>
  <path id="Path_4" data-name="Path 4" d="M312.427,337.426l-1.65-7.45h-4.31a1.028,1.028,0,0,0-.13.01h-.01a9.34,9.34,0,0,0-4.34,1.5,9.612,9.612,0,0,0-2.32,2.08c1.28.97,2.61,1.87,3.98,2.73l.06.03c.39.24.79.48,1.19.71.72.43,1.46.84,2.2,1.23l.47.24c1.08.56,2.18,1.09,3.31,1.58.23.1.48.2.71.3.02.01.03.01.05.02.53.22,1.06.43,1.6.63Z" transform="translate(-186.659 -175.481)" fill="#3f3d56"/>
  <circle id="Ellipse_2" data-name="Ellipse 2" cx="18.985" cy="18.985" r="18.985" transform="translate(126.609 102.492)" fill="#ffb8b8"/>
  <path id="Path_5" data-name="Path 5" d="M319.507,283.968c1.965,2.326,5.291,2.982,8.359,3.251a78.729,78.729,0,0,0,21.38-1.746c.435,4.212-.75,8.754,1.731,12.219a56.724,56.724,0,0,0,2.015-12.859,12.308,12.308,0,0,0-.712-5.508,5.065,5.065,0,0,0-4.315-3.181,10.814,10.814,0,0,1,4.824-2.062l-6.028-3.029,1.548-1.589L337.4,268.8l3.161-2.008a68.541,68.541,0,0,0-14.36-.453c-2.224.164-4.549.477-6.351,1.765s-2.843,3.85-1.724,5.741a8.336,8.336,0,0,0-6.353,5.041,13.458,13.458,0,0,0-.482,6.469,45.853,45.853,0,0,0,2.4,10.171Z" transform="translate(-185.718 -172.01)" fill="#2f2e41"/>
  <path id="Path_6" data-name="Path 6" d="M385.637,272.636a55.709,55.709,0,1,0-96.27,52.92c.5.63,1.02,1.26,1.55,1.87.04.04.07.08.11.12a54.042,54.042,0,0,0,4.15,4.28c.38.35.78.71,1.18,1.05.76.68,1.54,1.33,2.35,1.95.32.25.63.5.96.74,1.28.97,2.61,1.87,3.98,2.73l.06.03c.39.24.79.48,1.19.71.72.43,1.46.84,2.2,1.23l.47.24c1.08.56,2.18,1.09,3.31,1.58.23.1.48.2.71.3.02.01.03.01.05.02.53.22,1.06.43,1.6.63a52.56,52.56,0,0,0,5.42,1.74,55.737,55.737,0,0,0,14.37,1.88c1.77,0,3.52-.08,5.25-.25a55.516,55.516,0,0,0,11.64-2.35c.01,0,.02-.01.03-.01a54.627,54.627,0,0,0,6.99-2.77c.01-.01.03-.01.04-.02.51-.24,1-.5,1.5-.75l.24-.12c.4-.21.8-.42,1.2-.64,1-.55,1.98-1.13,2.95-1.75.27-.16.53-.33.8-.51.38-.25.76-.51,1.13-.78.49-.34.98-.69,1.46-1.05.15-.11.31-.22.46-.34a55.689,55.689,0,0,0,18.92-62.68Zm-20.76,60.25c-.33.26-.67.51-1.01.74-.33.25-.66.49-1,.71-.29.21-.58.41-.88.6l-.09.06c-.22.15-.44.29-.66.43q-1.245.78-2.52,1.5l-.27.15c-.38.21-.76.41-1.14.61-.05.03-.11.05-.16.08l-.06.03c-.48.25-.97.49-1.46.72a49.045,49.045,0,0,1-5.83,2.36c-.26.09-.52.18-.78.26a52.456,52.456,0,0,1-11.02,2.24c-1.64.15-3.3.23-4.97.23a51.95,51.95,0,0,1-13.59-1.78,49.376,49.376,0,0,1-6.67-2.26c-.11-.05-.23-.09-.34-.14s-.23-.09-.34-.14-.23-.1-.35-.16c-.94-.41-1.87-.86-2.78-1.33l-.44-.23c-1.11-.58-2.2-1.2-3.26-1.86-.31-.19-.63-.39-.93-.6-.08-.05-.15-.1-.23-.15-.71-.47-1.42-.96-2.11-1.47-.47-.35-.94-.7-1.4-1.06-.77-.58-1.51-1.2-2.23-1.84-.38-.32-.75-.67-1.11-1a50.8,50.8,0,0,1-4.02-4.16c-.42-.48-.83-.96-1.22-1.46a3.808,3.808,0,0,1-.25-.31,52.659,52.659,0,1,1,73.12,9.23Z" transform="translate(-186.659 -163.024)" fill="#3f3d56"/>
  <path id="Path_7" data-name="Path 7" d="M859.728,540a55.709,55.709,0,1,0-96.27,52.92c.5.63,1.02,1.26,1.55,1.87.04.04.07.08.11.12a54.138,54.138,0,0,0,4.15,4.28c.38.35.78.71,1.18,1.05.76.68,1.54,1.33,2.35,1.95a54.771,54.771,0,0,0,4.94,3.47l.06.03c1.11.69,2.24,1.33,3.39,1.94l.47.24c1.08.56,2.18,1.09,3.31,1.58.23.1.48.2.71.3.02.01.03.01.05.02a54.129,54.129,0,0,0,7.02,2.37,55.734,55.734,0,0,0,14.37,1.88c1.77,0,3.52-.08,5.25-.25a55.5,55.5,0,0,0,11.64-2.35c.01,0,.02-.01.03-.01a54.583,54.583,0,0,0,6.99-2.77c.01-.01.03-.01.04-.02.51-.24,1-.5,1.5-.75l.24-.12c.4-.21.8-.42,1.2-.64,1-.55,1.98-1.13,2.95-1.75.27-.16.53-.33.8-.51.88-.58,1.75-1.2,2.59-1.83.15-.11.31-.22.46-.34A55.692,55.692,0,0,0,859.728,540Z" transform="translate(-132.179 -193.859)" fill="#fff"/>
  <circle id="Ellipse_188" data-name="Ellipse 188" cx="8.349" cy="8.349" r="8.349" transform="translate(684.203 371.283)" fill="#2f2e41"/>
  <path id="Path_969" data-name="Path 969" d="M827.827,564.8a8.35,8.35,0,0,1,7.35,12.312,8.347,8.347,0,1,0-13.868-9.172,8.329,8.329,0,0,1,6.519-3.14Z" transform="translate(-132.662 -193.043)" fill="#2f2e41"/>
  <circle id="Ellipse_189" data-name="Ellipse 189" cx="24.526" cy="24.526" r="24.526" transform="translate(651.838 331.955)" fill="#2f2e41"/>
  <path id="Path_970" data-name="Path 970" d="M790.65,533.16a24.522,24.522,0,0,1,33.99-2.572c-.2-.191-.4-.383-.607-.568a24.526,24.526,0,0,0-32.73,36.535l.14.125c.208.185.422.36.635.537a24.522,24.522,0,0,1-1.427-34.057Z" transform="translate(-134.242 -191.584)" fill="#2f2e41"/>
  <circle id="Ellipse_190" data-name="Ellipse 190" cx="15.796" cy="15.796" r="15.796" transform="translate(659.933 348.8)" fill="#a0616a"/>
  <path id="Path_8" data-name="Path 8" d="M837.958,598.056v5.3c-.97.62-1.95,1.2-2.95,1.75-.4.22-.8.43-1.2.64l-.24.12c-.5.25-.99.51-1.5.75-.01.01-.03.01-.04.02a54.594,54.594,0,0,1-6.99,2.77c-.01,0-.02.01-.03.01a55.5,55.5,0,0,1-11.64,2.35c-1.73.17-3.48.25-5.25.25a55.729,55.729,0,0,1-14.37-1.88,54.12,54.12,0,0,1-7.02-2.37c-.02-.01-.03-.01-.05-.02-.23-.1-.48-.2-.71-.3-1.13-.49-2.23-1.02-3.31-1.58l-.47-.24c-1.15-.61-2.28-1.25-3.39-1.94l-.06-.03a54.78,54.78,0,0,1-4.94-3.47c-.81-.62-1.59-1.27-2.35-1.95-.4-.34-.8-.7-1.18-1.05a54.14,54.14,0,0,1-4.15-4.28,20.238,20.238,0,0,1,.76-3.07l.01-.01a4.5,4.5,0,0,1,.21-.5,4,4,0,0,1,.19-.42c1.79-3.35,5.03-4.18,9.05-4.36,2.27-.1,4.78.01,7.43-.02,1.4-.01,2.85-.06,4.3-.19,9.15-.83,7.49-6.23,7.9-9.14.41-2.82,2.95-.38,3.12-.22l.01.01a32.271,32.271,0,0,0,16.6,2.91c.98-.12,1.96-.19,2.94-.22,2.58-.03,2.02.71,1.13,1.32a11.193,11.193,0,0,1-1.35.76s-.41,2.5-.83,6.24c-.4,3.58,6.46,5.26,7.03,5.39a.061.061,0,0,0,.04.01,13.773,13.773,0,0,1,7.61.2h.01a9.018,9.018,0,0,1,5.68,6.46Z" transform="translate(-133.691 -195.229)" fill="#28b485"/>
  <path id="Path_9" data-name="Path 9" d="M786.827,604.486c0,.74-.02,1.45-.05,2.12-.01.4-.03.79-.05,1.16-.02-.01-.03-.01-.05-.02-.23-.1-.48-.2-.71-.3-1.13-.49-2.23-1.02-3.31-1.58l-.47-.24c-1.15-.61-2.28-1.25-3.39-1.94.03-.35.08-.7.13-1.05.11-.77.2-1.55.26-2.32a32.184,32.184,0,0,0-2.85-15.76v-.01c-.2-.4-.32-.62-.32-.62s2.91-2.5,7.06,0a2.5,2.5,0,0,1,.69.6C786.268,587.476,786.947,597.4,786.827,604.486Z" transform="translate(-136.815 -195.14)" fill="#2f2e41"/>
  <path id="Path_10" data-name="Path 10" d="M832.237,603.126c-.04,1.12-.1,2.29-.17,3.48v.01c-.01.01-.03.01-.04.02a54.594,54.594,0,0,1-6.99,2.77c-.01,0-.02.01-.03.01l-.11-2.81-.01-.37-.53-13.68a2.3,2.3,0,0,1,2.29-2.4h5.07c.25,0,.43.51.55,1.43v.01a86.672,86.672,0,0,1-.03,11.53Z" transform="translate(-132.907 -195.366)" fill="#2f2e41"/>
  <path id="Path_975" data-name="Path 975" d="M796.181,537.154v15.8h3.658l4.655-4.988-.623,4.988h16.17l-1-4.988,2,4.988h2.578v-15.8Z" transform="translate(-134.038 -191.177)" fill="#2f2e41"/>
  <ellipse id="Ellipse_191" data-name="Ellipse 191" cx="1.247" cy="2.286" rx="1.247" ry="2.286" transform="translate(656.496 359.623)" fill="#a0616a"/>
  <ellipse id="Ellipse_192" data-name="Ellipse 192" cx="1.247" cy="2.286" rx="1.247" ry="2.286" transform="translate(691.185 359.623)" fill="#a0616a"/>
  <path id="Path_11" data-name="Path 11" d="M841.347,601.016c-.84.63-1.71,1.25-2.59,1.83-.27.18-.53.35-.8.51-.97.62-1.95,1.2-2.95,1.75-.4.22-.8.43-1.2.64v-11.02s1.6,1.28,4.15,3.41c.32.27.65.55,1,.85C839.7,599.606,840.5,600.286,841.347,601.016Z" transform="translate(-132.147 -195.233)" fill="#6c63ff"/>
  <path id="Path_12" data-name="Path 12" d="M859.728,540a55.709,55.709,0,1,0-96.27,52.92c.5.63,1.02,1.26,1.55,1.87.04.04.07.08.11.12a54.138,54.138,0,0,0,4.15,4.28c.38.35.78.71,1.18,1.05.76.68,1.54,1.33,2.35,1.95a54.771,54.771,0,0,0,4.94,3.47l.06.03c1.11.69,2.24,1.33,3.39,1.94l.47.24c1.08.56,2.18,1.09,3.31,1.58.23.1.48.2.71.3.02.01.03.01.05.02a54.129,54.129,0,0,0,7.02,2.37,55.734,55.734,0,0,0,14.37,1.88c1.77,0,3.52-.08,5.25-.25a55.5,55.5,0,0,0,11.64-2.35c.01,0,.02-.01.03-.01a54.583,54.583,0,0,0,6.99-2.77c.01-.01.03-.01.04-.02.51-.24,1-.5,1.5-.75l.24-.12c.4-.21.8-.42,1.2-.64,1-.55,1.98-1.13,2.95-1.75.27-.16.53-.33.8-.51.88-.58,1.75-1.2,2.59-1.83.15-.11.31-.22.46-.34A55.692,55.692,0,0,0,859.728,540Zm-20.76,60.25c-.33.26-.67.51-1.01.74-.33.25-.66.49-1,.71-.29.21-.58.41-.88.6-.25.17-.5.33-.75.49q-1.244.78-2.52,1.5l-.271.15c-.38.21-.76.41-1.14.61-.05.03-.11.05-.16.08l-.06.03c-.48.25-.97.49-1.46.72a49.026,49.026,0,0,1-5.83,2.36c-.26.09-.52.18-.78.26a52.457,52.457,0,0,1-11.02,2.24c-1.64.15-3.3.23-4.97.23a51.95,51.95,0,0,1-13.59-1.78,49.393,49.393,0,0,1-6.67-2.26c-.23-.09-.46-.19-.68-.28-.12-.05-.23-.1-.35-.16-.94-.41-1.87-.86-2.78-1.33l-.44-.23c-1.11-.58-2.2-1.2-3.26-1.86-.39-.24-.78-.49-1.16-.75-1.2-.79-2.37-1.64-3.51-2.53-.77-.58-1.51-1.2-2.23-1.84-.38-.32-.75-.67-1.11-1a50.885,50.885,0,0,1-4.02-4.16c-.42-.48-.83-.96-1.22-1.46a3.8,3.8,0,0,1-.25-.31,52.659,52.659,0,1,1,73.12,9.23Z" transform="translate(-132.179 -193.859)" fill="#3f3d56"/>
  <path id="Path_13" data-name="Path 13" d="M856.591,535.628a10.056,10.056,0,0,0,5.277-14.488L885.227,494.1l-18.414-2.4-19.359,26.048a10.11,10.11,0,0,0,9.137,17.88Z" transform="translate(-128.929 -189.1)" fill="#ffb8b8"/>
  <path id="Path_14" data-name="Path 14" d="M988.255,541.342a10.056,10.056,0,0,0-2.363-15.237l7.425-34.955-17.288,6.779-4.4,32.155a10.11,10.11,0,0,0,16.626,11.259Z" transform="translate(-117.659 -189.513)" fill="#ffb8b8"/>
  <path id="Path_15" data-name="Path 15" d="M717.931,560.49h-12.26L699.839,513.2h18.094Z" transform="translate(69 -42)" fill="#ffb8b8"/>
  <path id="Path_16" data-name="Path 16" d="M907.717,735.4H868.187v-.5a15.386,15.386,0,0,1,15.387-15.386h24.145Z" transform="translate(-117.659 -205.024)" fill="#2f2e41"/>
  <path id="Path_17" data-name="Path 17" d="M777.931,560.49h-12.26L759.839,513.2h18.094Z" transform="translate(69 -42)" fill="#ffb8b8"/>
  <path id="Path_18" data-name="Path 18" d="M967.717,735.4H928.187v-.5a15.386,15.386,0,0,1,15.387-15.386h24.145Z" transform="translate(-117.659 -205.024)" fill="#2f2e41"/>
  <path id="Path_19" data-name="Path 19" d="M905.868,698.822l-17.355-.694a4.514,4.514,0,0,1-4.318-4.634l4.889-160.379L889.4,533c30.416-11,55.578-10.171,76.926,2.54l.239.143,2.929,156.2a4.5,4.5,0,0,1-4.5,4.585H950.365a4.51,4.51,0,0,1-4.416-3.632L926.014,591.429a1.5,1.5,0,0,0-2.961.109l-12.538,103.33a4.526,4.526,0,0,1-4.469,3.957Z" transform="translate(-117.659 -205.024)" fill="#2f2e41"/>
  <circle id="Ellipse_3" data-name="Ellipse 3" cx="24.561" cy="24.561" r="24.561" transform="translate(780.531 165.891)" fill="#ffb8b8"/>
  <path id="Path_20" data-name="Path 20" d="M864.891,516.106a4.506,4.506,0,0,1-2.091-1.686l-4.746-7.1a4.515,4.515,0,0,1,.119-5.169l19.132-25.968,11.986-57.511a14.5,14.5,0,1,1,27.017,10.52l-5.665,36.6a46.374,46.374,0,0,1-16.024,28.441l-25.185,21.134a4.5,4.5,0,0,1-3.528,1.008A4.455,4.455,0,0,1,864.891,516.106Z" transform="translate(-117.659 -185.187)" fill="#3f3d56"/>
  <path id="Path_21" data-name="Path 21" d="M987.206,518.711a4.506,4.506,0,0,1-2.683.116l-8.255-2.2a4.514,4.514,0,0,1-3.326-3.959l-2.8-32.133-29-51.089a14.5,14.5,0,1,1,27.231-9.954l19.931,31.217a46.374,46.374,0,0,1,6.763,31.936l-4.941,32.5a4.505,4.505,0,0,1-1.982,3.087A4.456,4.456,0,0,1,987.206,518.711Z" transform="translate(-117.659 -185.332)" fill="#3f3d56"/>
  <path id="Path_22" data-name="Path 22" d="M895.887,411.524a41.823,41.823,0,0,1,33.537-13.56q.616.038,1.227.086h0a41.734,41.734,0,0,1,30.16,16.646,42.362,42.362,0,0,1,7.525,34.145,132.361,132.361,0,0,0,3.5,67.876l6.589,20.459a4.5,4.5,0,0,1-4.042,5.872l-33.685,1.811-8.62-14.89v15.353l-40.941,2.2c-.082,0-.163.007-.243.007a4.5,4.5,0,0,1-4.484-4.861l4.627-57.382-5.8-38.973a42.089,42.089,0,0,1,10.657-34.791Z" transform="translate(-117.659 -186.272)" fill="#3f3d56"/>
  <path id="Path_23" data-name="Path 23" d="M939.821,391.354c-2.274,1.308-11.262,2.176-11.9-.368l-.014-.056c-.446-1.864-.076-3.811.052-5.723s-.059-4.013-1.362-5.419c-2.428-2.621-6.748-1.232-10.258-1.894a8.664,8.664,0,0,1-6.74-9.253c.05-.4.128-.8.216-1.193a6.673,6.673,0,0,0-6.927-8.081c-3.548.2-7.378,1.278-10.314-1.35-2.27-2.032-2.824-7.322-1.827-10.2,1.676-4.838,12.414-7.371,17.1-8.764a40.62,40.62,0,0,1,34.43,5.65c2.961,2.087,5.727,4.71,6.989,8.106s.653,7.68-2.193,9.922a18.332,18.332,0,0,1,4.246,17.806C949.915,385.063,943.206,389.406,939.821,391.354Z" transform="translate(-117.659 -177.146)" fill="#2f2e41"/>
  <path id="Path_24" data-name="Path 24" d="M1012.341,736.976h-213a1,1,0,0,1,0-2h213a1,1,0,0,1,0,2Z" transform="translate(-117.659 -205.024)" fill="#ccc"/>
</svg>
